<svg xmlns="http://www.w3.org/2000/svg" viewBox="17 -661 521 700">
  <path d="M538 -282 L538 -339 L384 -339 Q387 -386 399.5 -432.5 Q412 -479 428 -512 Q444 -545 459 -571.5 Q474 -598 484 -611 L494 -624 Q491 -627 486.5 -630.5 Q482 -634 472.5 -642 Q463 -650 456.5 -655.5 Q450 -661 450 -661 Q412 -615 378 -540 Q333 -440 326 -339 L229 -339 Q224 -441 177 -541 Q143 -615 104 -661 L61 -624 Q65 -619 72 -610 Q79 -601 97 -571.5 Q115 -542 129 -511 Q143 -480 156 -433 Q169 -386 172 -339 L17 -339 L17 -282 L171 -282 Q168 -236 155.5 -189.5 Q143 -143 127 -110 Q111 -77 96 -50.5 Q81 -24 71 -10 L61 3 L104 39 Q143 -7 177 -82 Q222 -182 228 -282 L326 -282 Q331 -181 377 -80 Q412 -6 451 39 L494 2 Q490 -2 483 -11 Q476 -20 458 -49.5 Q440 -79 425.5 -110.5 Q411 -142 398.5 -189 Q386 -236 383 -282 L538 -282 Z" fill="currentColor"/>
</svg>
