<svg xmlns="http://www.w3.org/2000/svg" viewBox="22 -730 466 850">
  <path d="M255 -174 Q280 -174 297.5 -156 Q315 -138 315 -113 Q315 -88 297.5 -70.5 Q280 -53 255 -53 Q230 -53 212 -70.5 Q194 -88 194 -113 Q194 -138 212 -156 Q230 -174 255 -174 Z M254.5 -291 Q181 -291 129 -239 Q77 -187 77 -113.5 Q77 -40 129 12 Q181 64 254.5 64 Q328 64 380 12 Q432 -40 432 -113.5 Q432 -187 380 -239 Q328 -291 254.5 -291 Z M282 -345 Q369 -335 428.5 -269 Q488 -203 488 -113 Q488 -17 419.5 51.5 Q351 120 254.5 120 Q158 120 90 51.5 Q22 -17 22 -113 Q22 -203 81.5 -269 Q141 -335 227 -345 L227 -618 L132 -514 L91 -551 L255 -730 L418 -551 L377 -514 L282 -618 L282 -345 Z" fill="currentColor"/>
</svg>
